<svg xmlns="http://www.w3.org/2000/svg" xmlns:xlink="http://www.w3.org/1999/xlink" version="1.1" x="0px" y="0px" viewBox="0 0 153.595 418.69374999999997" style="enable-background:new 0 0 153.595 334.955;" xml:space="preserve"><g><path d="M144.593,104.694c0-0.001-0.001-0.001-0.001-0.001c-3.234-4.19-7.443-8.909-12.647-14.191   c-8.128-8.249-18.704-17.88-31.947-29.095c-4.635-3.926-11.577-3.35-15.503,1.286c-3.926,4.636-3.351,11.577,1.286,15.503   c11.392,9.648,20.784,18.122,28.107,25.356c5.428,5.362,9.702,10.033,12.829,14.006l-1.145,0.601   c-6.403-1.319-14.807-3.757-22.913-6.74c-5.876,9.132-16.122,15.197-27.764,15.197c-11.268,0-21.231-5.68-27.187-14.325   c-6.228,1.405-17.867,5.614-28.245,18.17C2.27,151.262-3.573,185.092,2.097,231.013c0.688,5.572,5.429,9.653,10.903,9.653   c0.449,0,0.904-0.027,1.361-0.084c4.328-0.534,7.745-3.519,9.06-7.389c-7.542-8.672-11.365-19.995-11.365-33.816   c0-11.38,2.626-23.101,7.448-34h3.311c-4.896,10.633-7.759,22.378-7.759,34c0,36.754,28.574,49.806,59.84,49.806   c31.266,0,59.84-13.052,59.84-49.806c0-7.815,0.036-15.686-0.486-23.238c-0.758-10.946-2.698-21.216-7.64-29.666   c0.518-1.859,1.076-3.728,1.666-5.587c1.811,0.198,3.591,0.314,5.314,0.314c6.936,0,12.995-1.798,16.878-6.939   C158.849,123.162,148.12,109.263,144.593,104.694z"/><path d="M77.599,252.145v70.871c0,6.594,6.606,11.939,14.754,11.939c8.145,0,14.748-5.346,14.748-11.939l17.414-87.815   c-1.883,1.911-3.955,3.686-6.236,5.308C108.089,247.753,94.065,251.751,77.599,252.145z"/><path d="M25.276,235.2l17.412,87.815c0,6.594,6.607,11.939,14.751,11.939c8.146,0,14.753-5.346,14.753-11.939v-70.871   c-16.466-0.394-30.491-4.392-40.68-11.636C29.231,238.887,27.159,237.111,25.276,235.2z"/><path d="M74.896,123.616c15.17,0,27.703-11.263,29.712-25.882c-5.824-5.402-12.565-11.353-20.248-17.86   c-4.637-3.927-5.872-10.387-3.42-15.648c-1.952-0.399-3.973-0.609-6.044-0.609c-16.567,0-30,13.433-30,29.999   C44.896,110.185,58.328,123.616,74.896,123.616z M86.942,113.697l-1.26,0.813l-1.259,0.816c-0.388-0.596-9.712-14.522-27.396-8.027   l-1.035-2.816C75.973,97.15,86.835,113.53,86.942,113.697z"/><path d="M59.538,34.887c3.364-1.751,6.02-4.39,7.138-8.356c0.119-0.423,0.185-0.807,0.229-1.175   c1.397-0.744,2.667-1.655,3.726-2.796c4.374-4.713,1.82-11.79-3.289-14.713c-5.353-3.062-12.249-3.171-18.5-2.403   C35.511-9.569,8.536,9.718,2.045,24.091c-1.543,3.417-2.857,7.423,1.026,9.64c1.547,0.883,3.338,1.432,5.214,1.788   c3.065,4.783,10.398,7.191,15.384,8.444c0.153,0.211,0.322,0.411,0.506,0.6c-0.18,0.276-0.341,0.559-0.467,0.854   c-0.76,1.777,0.062,3.005,1.547,3.861c-1.261,4.879,3.246,8.595,8.246,9.066c1.386,0.131,2.889,0.138,4.426,0.014   c0.096,0.755,0.395,1.595,0.954,2.533c2.6,4.369,8.629,5.116,11.756,0.961c0.203-0.27,0.112-0.551-0.185-0.689   c-1.901-0.881-2.085-0.462-4.264-0.742c-0.864-0.111-3.348,1.285-1.821,1.508c-0.002-0.019,1.85,0.083,2.051,0.182   c2.169,1.061-0.62,0.932-1.458,0.696c-1.281-0.361-2.542-1.695-3.211-2.785c-0.485-0.789-0.729-1.473-0.817-2.083   c3.711-0.724,7.32-2.25,9.704-4.752c0.499-0.524-0.441-0.779-0.77-0.795c-3.664-0.17-10.974,0.744-11.883,4.616   c-4.267,0.287-8.401-0.901-9.592-4.533c-0.248-0.757-0.366-1.465-0.383-2.133c2.447,0.646,5.194,0.839,6.389,0.923   c3.238,0.229,26.713-1.426,24.047-7.775c-0.374-0.89-1.316-1.532-2.436-2.016c0.733-0.964,1.084-2.022,0.541-3.019   C57.869,37.543,58.918,36.374,59.538,34.887z M47.053,53.963c-1.495,1.142-3.654,2.06-5.985,2.59   C41.771,54.776,44.488,54.081,47.053,53.963z M55.253,37.192c-0.052-0.033-0.105-0.064-0.158-0.096   c0.077-0.178,0.155-0.356,0.22-0.538c0.229-0.067,0.456-0.138,0.681-0.211C55.773,36.651,55.524,36.931,55.253,37.192z    M26.578,46.501c-0.043-0.118-0.07-0.24-0.082-0.367c0.083,0.039,0.162,0.082,0.247,0.119   C26.684,46.333,26.634,46.42,26.578,46.501z M46.19,7.248c3.494,3.919,5.115,9.363,4.14,14.147   c-3.125-0.852-6.666-1.219-10.148-1.192c-0.249-0.051-0.5-0.101-0.751-0.142c-6.318-1.038-13.284-0.441-19.618,1.115   c0.364-1.021,0.93-2.008,1.68-2.909C27.032,11.611,37.376,8.427,46.19,7.248z M56.973,34.421c-0.009,0.032-0.026,0.057-0.036,0.089   c-0.404,0.177-0.815,0.343-1.238,0.491c0.232-1.532,0.023-3.13-0.835-4.7c-0.386-0.706-0.863-1.344-1.405-1.929   c0.964-0.048,1.947-0.118,2.937-0.216C57.41,29.855,57.711,31.927,56.973,34.421z M51.826,35.972   c-2.967-0.482-6.532-0.034-9.684,0.635c-3.564-0.008-7.135-0.262-10.671-0.761c3.363-0.544,6.584-1.539,9.321-3.275   c0.813-0.217,1.597-0.448,2.321-0.693c2.29-0.778,4.259-1.948,5.866-3.399c0.011,0,0.022,0,0.033,0   c0.113,0,0.232-0.002,0.346-0.003c2.632,2.128,3.502,4.846,2.995,7.405C52.178,35.915,52.002,35.942,51.826,35.972z M29.307,33.836   c1.684,0.105,3.4,0.057,5.089-0.106c-1.959,0.476-3.996,0.744-5.88,0.897C28.77,34.358,29.033,34.094,29.307,33.836z M45.23,28.438   c0.274,0.007,0.55,0.016,0.823,0.021c-0.561,0.45-1.177,0.863-1.85,1.238c0.334-0.374,0.665-0.753,0.968-1.167   C45.194,28.498,45.208,28.469,45.23,28.438z M29.134,23.175c4.299,0.086,8.62,0.62,12.615,1.786   c-1.039,0.359-2.068,0.741-3.082,1.154c-3.57-0.479-7.243-1.141-10.567-2.531C28.424,23.44,28.767,23.303,29.134,23.175z    M43.716,25.782c-0.014,0.219-0.047,0.446-0.101,0.685c-0.017,0.076-0.042,0.148-0.061,0.223c-0.666-0.066-1.294-0.133-1.876-0.2   C42.353,26.244,43.033,26.007,43.716,25.782z M46.222,26.618c0.191,0.087,0.388,0.165,0.576,0.256   c0.063,0.03,0.12,0.064,0.182,0.095c-0.295-0.019-0.588-0.038-0.875-0.059C46.146,26.811,46.187,26.714,46.222,26.618z    M47.474,24.626c0.321-0.094,0.643-0.188,0.962-0.279c0.331-0.095,0.684-0.2,1.046-0.308c-0.179,0.4-0.382,0.791-0.606,1.172   C48.419,25.001,47.951,24.808,47.474,24.626z M47.24,23.225c-0.378,0.112-0.759,0.227-1.139,0.342   c-0.254-0.478-0.613-0.91-1.065-1.291c1.076,0.175,2.124,0.402,3.131,0.678C47.806,23.058,47.493,23.15,47.24,23.225z    M42.675,23.235c-2.217-0.477-4.396-0.769-6.252-0.988c-0.669-0.079-1.348-0.139-2.026-0.203c1.671-0.195,3.459-0.281,5.278-0.244   C40.916,22.124,41.959,22.587,42.675,23.235z M29.057,21.728c-1.397-0.035-2.796-0.037-4.196,0.013   c1.607-0.211,3.862-0.449,6.259-0.547C30.402,21.356,29.706,21.532,29.057,21.728z M25.493,23.206   c-0.14,0.081-0.29,0.159-0.42,0.243c-0.361,0.232-0.901,0.773-0.27,1.073c3.241,1.537,6.866,2.494,10.588,3.083   c-0.136,0.07-0.276,0.134-0.411,0.205c-1.807,0.955-4.205,2.393-6.402,4.151c-2.719-0.434-5.24-1.41-7.067-3.234   c-1.5-1.498-2.162-3.253-2.156-5.023C21.344,23.455,23.402,23.283,25.493,23.206z M36.791,28.584   c0.418-0.214,0.844-0.418,1.273-0.617c1.618,0.183,3.242,0.307,4.848,0.387c-0.613,1.147-1.507,2.087-2.585,2.862   c-0.111,0.029-0.212,0.067-0.325,0.094c-2.544,0.608-5.706,1.039-8.813,0.91C33.275,30.573,35.458,29.267,36.791,28.584z    M52.083,27.128c-0.366-0.285-0.749-0.554-1.15-0.806c0.447-0.598,0.855-1.22,1.202-1.873c1.365,0.698,2.528,1.548,3.415,2.554   C54.398,27.083,53.235,27.123,52.083,27.128z M54.064,22.764c2.765-0.647,5.654-0.99,7.871-0.144   c1.426,0.544,2.017,1.518,2.094,2.657c-1.561,0.638-3.334,1.078-5.212,1.367C57.736,25.019,56.085,23.738,54.064,22.764z    M16.429,24.134c-0.1,1.934,0.564,3.895,2.385,5.705c2.065,2.053,4.879,3.188,7.952,3.706c-0.418,0.401-0.82,0.81-1.194,1.234   c-0.402-0.088-0.806-0.17-1.207-0.264c-5.025-1.174-10.19-2.809-14.38-5.915c0.199-0.714,0.544-1.412,1.079-2.071   c0.545-0.67,1.252-1.229,2.051-1.706C14.214,24.535,15.33,24.318,16.429,24.134z M17.63,34.69   c-0.939-0.057-1.876-0.125-2.809-0.216c-1.074-0.105-2.431-0.197-3.832-0.379c-0.473-0.79-0.834-1.638-1.034-2.507   C12.36,32.956,15.072,33.912,17.63,34.69z M36.591,38.043c-1.466,0.427-3.326,0.982-5.193,1.707   c-1.882-0.199-3.761-0.443-5.631-0.733c0.183-0.711,0.513-1.422,0.948-2.12C29.979,37.482,33.285,37.855,36.591,38.043z    M28.298,41.158c-0.746,0.4-1.449,0.835-2.08,1.311c-0.319-0.547-0.505-1.104-0.576-1.668   C26.526,40.93,27.411,41.048,28.298,41.158z M43.388,41.795c1.281-0.068,2.769-0.186,4.314-0.398   c0.26,0.024,0.519,0.052,0.778,0.081c-1.448,1.017-3.242,1.775-5.312,2.128c-3.239,0.551-6.958,0.667-10.739,0.325   c1.673-0.942,3.613-1.616,5.44-2.066C39.713,41.903,41.556,41.893,43.388,41.795z M29.588,43.592   c-0.415-0.063-0.827-0.139-1.24-0.214c0.895-0.7,1.883-1.33,2.938-1.895c0.682,0.064,1.364,0.132,2.046,0.182   C31.994,42.182,30.725,42.82,29.588,43.592z M30.48,45.276c5.916,0.779,12.169,0.607,17.549-1.533   c1.095-0.436,2.176-1.066,3.175-1.83c0.556,0.119,1.087,0.255,1.573,0.412c-1.423,1.273-3.769,2.205-4.94,2.652   c-4.12,1.575-12.384,2.68-17.678,0.583C30.262,45.463,30.371,45.369,30.48,45.276z M49.559,39.814   c-2.334-0.393-4.662-0.43-7.054-0.189c-1.303,0.131-2.738,0.333-4.208,0.628c-0.083-0.003-0.177-0.008-0.258-0.011   c-1.175-0.047-2.349-0.123-3.523-0.212c2.272-0.857,4.7-1.47,7.095-1.841c2.347-0.001,4.947-0.099,7.566-0.413   c0.752,0.027,1.612,0.093,2.397,0.27c-0.285,0.538-0.633,1.055-1.04,1.546C50.215,39.674,49.889,39.747,49.559,39.814z    M60.441,32.294c-0.105,0.096-0.22,0.18-0.329,0.272c0.216-1.835-0.041-3.435-0.68-4.818c1.534-0.263,3.041-0.624,4.477-1.11   C63.434,28.761,61.756,31.091,60.441,32.294z M50.019,6.847c7.454-0.555,21.732,1.108,19.856,12.007   c-0.359,2.086-1.462,3.668-3.044,4.867c-0.989-3.909-8.041-3.223-13.572-2.048c1.036-3.62,0.677-7.728-1.379-11.724   c-0.588-1.143-1.227-2.17-1.907-3.097C49.988,6.85,50.004,6.848,50.019,6.847z M4.406,31.655c-4.033-4.224,3.447-13.46,6.256-16.65   C16.24,8.67,24.273,2.779,32.902,1.981c4.885-0.452,9.029,1.256,12.081,4.049c-0.18,0.032-0.364,0.063-0.542,0.095   c-7.823,1.443-16.115,4.132-22.454,9.102c-2.26,1.772-4.295,4.176-5.15,6.757c-0.025,0.008-0.052,0.014-0.077,0.021   c-1.264,0.385-2.614,0.859-3.899,1.455c-0.122,0.033-0.248,0.056-0.37,0.09c-2.491,0.696-5.088,1.632-7.017,3.418   c-0.229,0.212-0.423,0.476-0.195,0.764c0.515,0.651,1.098,1.24,1.724,1.786c-0.186,0.888-0.204,1.865,0.014,2.955   c0.057,0.286,0.149,0.555,0.233,0.828C6.117,32.921,5.114,32.396,4.406,31.655z M12.973,36.532   c-0.173-0.159-0.342-0.326-0.508-0.498c1.747,0.13,3.473,0.187,5.054,0.262c2.125,0.101,4.428,0.176,6.785,0.138   c-0.463,0.698-0.841,1.418-1.109,2.155c-1.452-0.256-2.899-0.534-4.338-0.837c-0.877-0.185-3.399,1.176-1.79,1.514   c1.889,0.398,3.801,0.759,5.724,1.086c-0.021,0.204-0.053,0.407-0.054,0.612c-0.002,0.362,0.034,0.702,0.093,1.027   C19.059,40.748,15.608,38.952,12.973,36.532z M55.606,45.429c-0.559,1.714-5.259,2.484-6.724,2.845   c-3.211,0.79-6.56,1.315-9.866,1.462c-1.88,0.084-7.6-0.265-10.619-1.651c0.147-0.378,0.332-0.737,0.551-1.079   c2.623,0.686,5.505,0.849,7.413,0.93c5.786,0.246,11.81-0.706,16.753-3.92c0.417-0.271,0.876-0.598,1.326-0.964   C55.428,43.65,55.933,44.426,55.606,45.429z M53.948,40.38c-0.011,0.127-0.039,0.251-0.075,0.374   c-0.367-0.098-0.728-0.186-1.075-0.266c0.107-0.111,0.216-0.22,0.319-0.334c0.274-0.096,0.539-0.203,0.805-0.311   C53.952,40.009,53.965,40.186,53.948,40.38z"/><path d="M44.399,61.934c-0.012-0.002-0.019-0.005-0.031-0.006C44.368,61.929,44.377,61.931,44.399,61.934z"/></g><text x="0" y="349.955" fill="#000000" font-size="1px" font-weight="bold" font-family="'Helvetica Neue', Helvetica, Arial-Unicode, Arial, Sans-serif">Created by Gan Khoon Lay</text><text x="0" y="354.955" fill="#000000" font-size="1px" font-weight="bold" font-family="'Helvetica Neue', Helvetica, Arial-Unicode, Arial, Sans-serif">from the Noun Project</text></svg>